<svg width="32" height="32" viewBox="0 0 32 32" fill="none" xmlns="http://www.w3.org/2000/svg">
<g filter="url(#filter0_i_1_2)">
<path d="M11 24V11M11 11V4C11 2.89543 11.8954 2 13 2H18C19.1046 2 20 2.89543 20 4V9C20 10.1046 19.1046 11 18 11H11ZM11 11L20 24" stroke="#FAFAFA" stroke-width="2"/>
<path d="M11 24V11M11 11V4C11 2.89543 11.8954 2 13 2H18C19.1046 2 20 2.89543 20 4V9C20 10.1046 19.1046 11 18 11H11ZM11 11L20 24" stroke="#42A5F5" stroke-width="2"/>
<path d="M20 29H13C11.8954 29 11 28.1046 11 27V22.5M20 16H13C11.8954 16 11 16.8954 11 18V22.5M11 22.5H16" stroke="#FAFAFA" stroke-width="2"/>
<path d="M20 29H13C11.8954 29 11 28.1046 11 27V22.5M20 16H13C11.8954 16 11 16.8954 11 18V22.5M11 22.5H16" stroke="#42A5F5" stroke-opacity="0.5" stroke-width="2"/>
</g>
<defs>
<filter id="filter0_i_1_2" x="0" y="0" width="32" height="32" filterUnits="userSpaceOnUse" color-interpolation-filters="sRGB">
<feFlood flood-opacity="0" result="BackgroundImageFix"/>
<feBlend mode="normal" in="SourceGraphic" in2="BackgroundImageFix" result="shape"/>
<feColorMatrix in="SourceAlpha" type="matrix" values="0 0 0 0 0 0 0 0 0 0 0 0 0 0 0 0 0 0 127 0" result="hardAlpha"/>
<feMorphology radius="0.2" operator="erode" in="SourceAlpha" result="effect1_innerShadow_1_2"/>
<feOffset/>
<feGaussianBlur stdDeviation="2.5"/>
<feComposite in2="hardAlpha" operator="arithmetic" k2="-1" k3="1"/>
<feColorMatrix type="matrix" values="0 0 0 0 0 0 0 0 0 0 0 0 0 0 0 0 0 0 0.25 0"/>
<feBlend mode="normal" in2="shape" result="effect1_innerShadow_1_2"/>
</filter>
</defs>
</svg>
